<svg width="889.014" height="94.141" viewBox="0 0 889.014 94.141" xmlns="http://www.w3.org/2000/svg">
	<g id="svgGroup" stroke-linecap="round" fill-rule="evenodd" font-size="9pt" stroke="#000" stroke-width="0.25mm" fill="none" style="stroke:#000;stroke-width:0.25mm;fill:none">
		<path d="M 59.424 3.906 L 59.424 75 L 42.383 75 L 42.383 45.313 L 17.139 45.313 L 17.139 75 L 0 75 L 0 3.906 L 17.139 3.906 L 17.139 32.129 L 42.383 32.129 L 42.383 3.906 L 59.424 3.906 Z" id="0" vector-effect="non-scaling-stroke"/>
		<path d="M 86.865 22.168 L 86.865 75 L 70.361 75 L 70.361 22.168 L 86.865 22.168 Z M 69.943 5.528 A 7.922 7.922 0 0 0 69.385 8.545 A 9.409 9.409 0 0 0 69.395 8.993 A 7.281 7.281 0 0 0 71.924 14.307 A 8.625 8.625 0 0 0 75.58 16.21 A 11.925 11.925 0 0 0 78.516 16.553 A 12.387 12.387 0 0 0 80.901 16.333 A 8.76 8.76 0 0 0 85.107 14.307 A 7.342 7.342 0 0 0 87.089 11.562 A 7.922 7.922 0 0 0 87.646 8.545 A 9.409 9.409 0 0 0 87.636 8.097 A 7.281 7.281 0 0 0 85.107 2.783 A 8.625 8.625 0 0 0 81.451 0.88 A 11.925 11.925 0 0 0 78.516 0.537 A 12.387 12.387 0 0 0 76.13 0.756 A 8.76 8.76 0 0 0 71.924 2.783 A 7.342 7.342 0 0 0 69.943 5.528 Z" id="1" vector-effect="non-scaling-stroke"/>
		<path d="M 124.609 9.033 L 141.064 9.033 L 141.064 22.168 L 149.756 22.168 L 149.756 33.594 L 141.064 33.594 L 141.064 57.764 A 13.073 13.073 0 0 0 141.132 59.14 Q 141.333 61.035 142.139 61.914 A 2.778 2.778 0 0 0 143.07 62.557 Q 144.254 63.086 146.387 63.086 A 33.797 33.797 0 0 0 148.108 63.045 Q 148.926 63.003 149.631 62.919 A 15.611 15.611 0 0 0 150.488 62.793 L 150.488 74.561 A 30.368 30.368 0 0 1 141.211 75.977 Q 135.85 75.977 132.259 74.383 A 11.957 11.957 0 0 1 128.662 71.973 A 12.47 12.47 0 0 1 125.654 67.026 Q 124.609 63.955 124.609 59.814 L 124.609 33.594 L 117.871 33.594 L 117.871 22.168 L 124.609 22.168 L 124.609 9.033 Z" id="3" vector-effect="non-scaling-stroke"/>
		<path d="M 172.314 0 L 172.314 27.832 A 18.034 18.034 0 0 1 177.477 23.3 A 16.465 16.465 0 0 1 185.791 21.191 A 23.488 23.488 0 0 1 190.949 21.722 Q 194.386 22.496 196.886 24.397 A 13.565 13.565 0 0 1 198.975 26.367 A 16.688 16.688 0 0 1 202.031 31.84 Q 202.88 34.289 203.244 37.289 A 39.382 39.382 0 0 1 203.516 41.65 L 203.516 75 L 187.012 75 L 187.012 42.041 A 16.453 16.453 0 0 0 186.877 39.855 Q 186.531 37.286 185.303 35.864 A 5 5 0 0 0 183.349 34.512 Q 181.799 33.887 179.492 33.887 A 12.552 12.552 0 0 0 176.871 34.142 Q 173.824 34.793 172.314 37.109 L 172.314 75 L 155.859 75 L 155.859 0 L 172.314 0 Z" id="4" vector-effect="non-scaling-stroke"/>
		<path d="M 211.035 49.854 L 211.035 48.486 A 37.184 37.184 0 0 1 211.763 40.969 A 28.899 28.899 0 0 1 214.038 34.18 Q 217.041 27.979 222.803 24.585 A 24.199 24.199 0 0 1 231.234 21.602 A 32.228 32.228 0 0 1 236.475 21.191 A 28.923 28.923 0 0 1 244.018 22.123 A 20.853 20.853 0 0 1 254.053 28.101 Q 260.498 35.01 260.498 47.363 L 260.498 53.76 L 227.783 53.76 Q 228.662 58.203 231.641 60.742 A 10.377 10.377 0 0 0 236.372 62.995 A 14.795 14.795 0 0 0 239.355 63.281 Q 247.168 63.281 251.563 57.813 L 259.082 66.699 A 19.291 19.291 0 0 1 253.941 71.528 A 25.493 25.493 0 0 1 250.366 73.462 A 29.454 29.454 0 0 1 238.232 75.977 A 33.207 33.207 0 0 1 229.442 74.87 A 24.882 24.882 0 0 1 218.555 68.726 A 24.272 24.272 0 0 1 211.186 53.057 A 33.251 33.251 0 0 1 211.035 49.854 Z M 227.783 43.457 L 244.385 43.457 L 244.385 42.188 Q 244.467 38.862 242.996 36.797 A 6.416 6.416 0 0 0 242.383 36.06 A 6.798 6.798 0 0 0 239.203 34.232 Q 237.933 33.887 236.377 33.887 Q 229.15 33.887 227.783 43.457 Z" id="5" vector-effect="non-scaling-stroke"/>
		<path d="M 299.365 21.777 L 299.072 37.061 L 293.652 36.67 A 18.92 18.92 0 0 0 290.168 36.966 Q 288.304 37.316 286.913 38.081 A 7.286 7.286 0 0 0 283.691 41.553 L 283.691 75 L 267.236 75 L 267.236 22.168 L 282.666 22.168 L 283.203 28.955 A 18.336 18.336 0 0 1 285.946 25.04 A 11.629 11.629 0 0 1 294.775 21.191 A 20.011 20.011 0 0 1 296.943 21.303 Q 298.015 21.42 298.944 21.66 A 11.404 11.404 0 0 1 299.365 21.777 Z" id="6" vector-effect="non-scaling-stroke"/>
		<path d="M 302.441 49.854 L 302.441 48.486 A 37.184 37.184 0 0 1 303.169 40.969 A 28.899 28.899 0 0 1 305.444 34.18 Q 308.447 27.979 314.209 24.585 A 24.199 24.199 0 0 1 322.64 21.602 A 32.228 32.228 0 0 1 327.881 21.191 A 28.923 28.923 0 0 1 335.425 22.123 A 20.853 20.853 0 0 1 345.459 28.101 Q 351.904 35.01 351.904 47.363 L 351.904 53.76 L 319.189 53.76 Q 320.068 58.203 323.047 60.742 A 10.377 10.377 0 0 0 327.778 62.995 A 14.795 14.795 0 0 0 330.762 63.281 Q 338.574 63.281 342.969 57.813 L 350.488 66.699 A 19.291 19.291 0 0 1 345.347 71.528 A 25.493 25.493 0 0 1 341.772 73.462 A 29.454 29.454 0 0 1 329.639 75.977 A 33.207 33.207 0 0 1 320.848 74.87 A 24.882 24.882 0 0 1 309.961 68.726 A 24.272 24.272 0 0 1 302.592 53.057 A 33.251 33.251 0 0 1 302.441 49.854 Z M 319.189 43.457 L 335.791 43.457 L 335.791 42.188 Q 335.873 38.862 334.402 36.797 A 6.416 6.416 0 0 0 333.789 36.06 A 6.798 6.798 0 0 0 330.609 34.232 Q 329.34 33.887 327.783 33.887 Q 320.557 33.887 319.189 43.457 Z" id="7" vector-effect="non-scaling-stroke"/>
		<path d="M 364.307 94.141 L 356.006 90.234 L 357.666 86.914 Q 361.084 80.566 361.23 74.805 L 361.23 62.598 L 374.414 62.598 L 374.365 73.193 Q 374.316 78.809 371.484 84.619 A 31.687 31.687 0 0 1 367.819 90.492 A 26.374 26.374 0 0 1 364.307 94.141 Z" id="8" vector-effect="non-scaling-stroke"/>
		<path d="M 429.395 3.906 L 429.395 75 L 412.305 75 L 412.305 3.906 L 429.395 3.906 Z" id="10" vector-effect="non-scaling-stroke"/>
		<path d="M 449.756 0 L 449.756 7.91 L 448.145 28.076 L 438.037 28.076 L 438.037 0 L 449.756 0 Z" id="11" vector-effect="non-scaling-stroke"/>
		<path d="M 455.127 22.168 L 470.557 22.168 L 471.094 28.369 A 17.895 17.895 0 0 1 484.138 21.279 A 23.428 23.428 0 0 1 486.182 21.191 A 19.379 19.379 0 0 1 491.298 21.821 A 12.392 12.392 0 0 1 499.707 29.15 A 17.142 17.142 0 0 1 512.104 21.396 A 23.263 23.263 0 0 1 515.234 21.191 A 18.927 18.927 0 0 1 522.29 22.406 Q 530.518 25.694 531.59 37.883 A 42.221 42.221 0 0 1 531.738 40.625 L 531.738 75 L 515.234 75 L 515.234 41.65 A 19.063 19.063 0 0 0 515.129 39.571 Q 514.893 37.43 514.129 36.138 A 4.724 4.724 0 0 0 513.867 35.742 Q 512.5 33.887 508.887 33.887 A 8.591 8.591 0 0 0 505.544 34.511 Q 503.097 35.533 501.611 38.232 L 501.66 38.916 L 501.66 75 L 485.156 75 L 485.156 41.748 Q 485.156 38.223 484.205 36.353 A 4.848 4.848 0 0 0 483.838 35.742 A 3.822 3.822 0 0 0 482.189 34.458 Q 480.867 33.887 478.809 33.887 Q 474.072 33.887 471.582 38.232 L 471.582 75 L 455.127 75 L 455.127 22.168 Z" id="12" vector-effect="non-scaling-stroke"/>
		<path d="M 607.275 50.928 L 624.316 50.928 A 27.814 27.814 0 0 1 622.811 58.93 A 24.347 24.347 0 0 1 620.312 64.038 A 23.778 23.778 0 0 1 611.446 72.137 A 28.906 28.906 0 0 1 610.034 72.852 A 32.36 32.36 0 0 1 600.541 75.607 A 41.427 41.427 0 0 1 594.922 75.977 A 34.587 34.587 0 0 1 585.295 74.706 A 25.814 25.814 0 0 1 572.852 66.846 Q 564.795 57.715 564.795 41.064 L 564.795 37.549 A 50.735 50.735 0 0 1 565.591 28.345 A 37.729 37.729 0 0 1 568.433 19.263 A 28.904 28.904 0 0 1 574.141 10.947 A 26.563 26.563 0 0 1 578.906 7.153 Q 585.742 2.881 594.727 2.881 Q 607.666 2.881 615.527 9.692 A 25.373 25.373 0 0 1 623.587 23.142 A 35.22 35.22 0 0 1 624.463 28.467 L 607.373 28.467 Q 607.257 24.598 606.118 22.029 A 8.597 8.597 0 0 0 604.102 19.141 A 9.514 9.514 0 0 0 600.793 17.205 Q 599.334 16.687 597.535 16.468 A 23.332 23.332 0 0 0 594.727 16.309 A 13.408 13.408 0 0 0 590.917 16.818 A 9.564 9.564 0 0 0 585.352 21.094 Q 582.739 25.291 582.305 33.885 A 68.451 68.451 0 0 0 582.227 36.377 L 582.227 41.406 A 72.623 72.623 0 0 0 582.405 46.689 Q 582.799 52.064 584.06 55.466 A 13.961 13.961 0 0 0 585.083 57.666 A 9.426 9.426 0 0 0 591.504 62.204 A 15.891 15.891 0 0 0 594.922 62.549 A 20.142 20.142 0 0 0 598.343 62.277 Q 600.224 61.952 601.716 61.24 A 9.484 9.484 0 0 0 603.955 59.766 A 8.861 8.861 0 0 0 606.295 56.302 Q 606.845 54.894 607.09 53.147 A 20.781 20.781 0 0 0 607.275 50.928 Z" id="14" vector-effect="non-scaling-stroke"/>
		<path d="M 629.639 50.879 L 629.59 48.096 A 34.727 34.727 0 0 1 630.445 40.235 A 28.2 28.2 0 0 1 632.666 34.009 A 21.998 21.998 0 0 1 641.504 24.512 Q 647.266 21.191 655.029 21.191 A 30.834 30.834 0 0 1 663.065 22.182 A 22.104 22.104 0 0 1 673.73 28.54 A 24.592 24.592 0 0 1 679.565 39.629 Q 680.504 43.44 680.562 47.933 A 46.095 46.095 0 0 1 680.566 48.535 L 680.566 49.121 A 35.996 35.996 0 0 1 679.68 57.341 A 24.267 24.267 0 0 1 673.706 68.726 A 22.714 22.714 0 0 1 660.683 75.523 A 32.654 32.654 0 0 1 655.127 75.977 A 30.53 30.53 0 0 1 647.142 74.986 A 22.479 22.479 0 0 1 637.012 69.214 Q 630.176 62.451 629.639 50.879 Z M 646.094 46.143 L 646.045 49.121 A 37.155 37.155 0 0 0 646.224 52.908 Q 646.617 56.733 647.875 59.087 A 8.995 8.995 0 0 0 648.34 59.863 A 7.386 7.386 0 0 0 653.712 63.189 A 10.518 10.518 0 0 0 655.127 63.281 A 7.497 7.497 0 0 0 662.233 59.12 Q 663.91 55.993 664.093 50.515 A 39.907 39.907 0 0 0 664.111 49.756 L 664.111 48.096 A 33.272 33.272 0 0 0 663.792 43.267 Q 662.93 37.422 659.74 35.219 A 8.088 8.088 0 0 0 655.029 33.887 A 7.44 7.44 0 0 0 648.079 37.873 Q 646.4 40.854 646.098 46.064 A 36.351 36.351 0 0 0 646.094 46.143 Z" id="15" vector-effect="non-scaling-stroke"/>
		<path d="M 687.5 22.168 L 702.93 22.168 L 703.467 28.369 A 17.528 17.528 0 0 1 716.215 21.304 A 23.844 23.844 0 0 1 718.555 21.191 A 21.939 21.939 0 0 1 723.304 21.673 Q 726.402 22.36 728.669 24.027 A 12.382 12.382 0 0 1 730.884 26.123 A 15.858 15.858 0 0 1 733.548 30.952 Q 735.02 35.081 735.107 40.967 L 735.107 75 L 718.604 75 L 718.604 41.65 A 15.851 15.851 0 0 0 718.476 39.566 Q 718.162 37.205 717.074 35.864 A 4.748 4.748 0 0 0 716.992 35.767 A 4.502 4.502 0 0 0 715.331 34.585 Q 713.882 33.956 711.639 33.894 A 18.138 18.138 0 0 0 711.133 33.887 A 9.649 9.649 0 0 0 708.104 34.337 A 7.548 7.548 0 0 0 703.955 37.695 L 703.955 75 L 687.5 75 L 687.5 22.168 Z" id="16" vector-effect="non-scaling-stroke"/>
		<path d="M 743.896 22.168 L 759.326 22.168 L 759.863 28.369 A 17.528 17.528 0 0 1 772.611 21.304 A 23.844 23.844 0 0 1 774.951 21.191 A 21.939 21.939 0 0 1 779.701 21.673 Q 782.798 22.36 785.066 24.027 A 12.382 12.382 0 0 1 787.28 26.123 A 15.858 15.858 0 0 1 789.944 30.952 Q 791.417 35.081 791.504 40.967 L 791.504 75 L 775 75 L 775 41.65 A 15.851 15.851 0 0 0 774.873 39.566 Q 774.558 37.205 773.47 35.864 A 4.748 4.748 0 0 0 773.389 35.767 A 4.502 4.502 0 0 0 771.727 34.585 Q 770.278 33.956 768.035 33.894 A 18.138 18.138 0 0 0 767.529 33.887 A 9.649 9.649 0 0 0 764.5 34.337 A 7.548 7.548 0 0 0 760.352 37.695 L 760.352 75 L 743.896 75 L 743.896 22.168 Z" id="17" vector-effect="non-scaling-stroke"/>
		<path d="M 798.584 50.879 L 798.535 48.096 A 34.727 34.727 0 0 1 799.391 40.235 A 28.2 28.2 0 0 1 801.611 34.009 A 21.998 21.998 0 0 1 810.449 24.512 Q 816.211 21.191 823.975 21.191 A 30.834 30.834 0 0 1 832.01 22.182 A 22.104 22.104 0 0 1 842.676 28.54 A 24.592 24.592 0 0 1 848.51 39.629 Q 849.449 43.44 849.508 47.933 A 46.095 46.095 0 0 1 849.512 48.535 L 849.512 49.121 A 35.996 35.996 0 0 1 848.626 57.341 A 24.267 24.267 0 0 1 842.651 68.726 A 22.714 22.714 0 0 1 829.628 75.523 A 32.654 32.654 0 0 1 824.072 75.977 A 30.53 30.53 0 0 1 816.088 74.986 A 22.479 22.479 0 0 1 805.957 69.214 Q 799.121 62.451 798.584 50.879 Z M 815.039 46.143 L 814.99 49.121 A 37.155 37.155 0 0 0 815.169 52.908 Q 815.563 56.733 816.82 59.087 A 8.995 8.995 0 0 0 817.285 59.863 A 7.386 7.386 0 0 0 822.657 63.189 A 10.518 10.518 0 0 0 824.072 63.281 A 7.497 7.497 0 0 0 831.179 59.12 Q 832.855 55.993 833.039 50.515 A 39.907 39.907 0 0 0 833.057 49.756 L 833.057 48.096 A 33.272 33.272 0 0 0 832.737 43.267 Q 831.875 37.422 828.685 35.219 A 8.088 8.088 0 0 0 823.975 33.887 A 7.44 7.44 0 0 0 817.024 37.873 Q 815.345 40.854 815.044 46.064 A 36.351 36.351 0 0 0 815.039 46.143 Z" id="18" vector-effect="non-scaling-stroke"/>
		<path d="M 889.014 21.777 L 888.721 37.061 L 883.301 36.67 A 18.92 18.92 0 0 0 879.817 36.966 Q 877.953 37.316 876.562 38.081 A 7.286 7.286 0 0 0 873.34 41.553 L 873.34 75 L 856.885 75 L 856.885 22.168 L 872.314 22.168 L 872.852 28.955 A 18.336 18.336 0 0 1 875.594 25.04 A 11.629 11.629 0 0 1 884.424 21.191 A 20.011 20.011 0 0 1 886.591 21.303 Q 887.664 21.42 888.593 21.66 A 11.404 11.404 0 0 1 889.014 21.777 Z" id="19" vector-effect="non-scaling-stroke"/>
	</g>
</svg>